<?xml version="1.0" encoding="utf-8"?>
<!-- Generator: Adobe Illustrator 15.0.0, SVG Export Plug-In . SVG Version: 6.00 Build 0)  -->
<!DOCTYPE svg PUBLIC "-//W3C//DTD SVG 1.0//EN" "http://www.w3.org/TR/2001/REC-SVG-20010904/DTD/svg10.dtd">
<svg version="1.0" id="Warstwa_1" xmlns="http://www.w3.org/2000/svg" xmlns:xlink="http://www.w3.org/1999/xlink" x="0px" y="0px"
	 width="62.362px" height="62.362px" viewBox="0 0 62.362 62.362" enable-background="new 0 0 62.362 62.362" xml:space="preserve">
<image display="none" overflow="visible" width="590" height="2960" xlink:href="AC9CC1B5.jpg"  transform="matrix(1 0 0 1 11.0562 -1051.7563)">
</image>
<g>
	<g>
		<g>
			<g>
				<path fill="none" stroke="#E5332A" stroke-width="2" stroke-miterlimit="10" d="M411.988-343.487h-14.25c0,0-1,26.5,14.25,26.5"
					/>
				<path fill="none" stroke="#E5332A" stroke-width="2" stroke-miterlimit="10" d="M400.939-324.57l-8.701-4.667
					c0,0-2.667-1.25-2.667-4.5s2.084-5.25,3.75-5.25c1.667,0,4.403,0,4.403,0"/>
			</g>
			<g>
				<path fill="none" stroke="#E5332A" stroke-width="2" stroke-miterlimit="10" d="M411.575-343.487h14.25c0,0,1,26.5-14.25,26.5"
					/>
				<path fill="none" stroke="#E5332A" stroke-width="2" stroke-miterlimit="10" d="M422.624-324.57l8.701-4.667
					c0,0,2.666-1.25,2.666-4.5s-2.083-5.25-3.75-5.25c-1.666,0-4.402,0-4.402,0"/>
			</g>
		</g>
		<g>
			<g>
				<path fill="none" stroke="#E5332A" stroke-width="2" stroke-miterlimit="10" d="M411.918-308.57h-2.13c0,0-4-0.25-4,2.833
					c0,3.084,0,2.25,0,2.25"/>
				<path fill="none" stroke="#E5332A" stroke-width="2" stroke-miterlimit="10" d="M411.918-303.385h-6.88
					c0,0-4.169-0.102-4.169,3.731c0,1.833,0,1.833,0,1.833h11.049"/>
				
					<line fill="none" stroke="#E5332A" stroke-width="2" stroke-miterlimit="10" x1="409.789" y1="-308.57" x2="409.789" y2="-316.987"/>
			</g>
			<g>
				<path fill="none" stroke="#E5332A" stroke-width="2" stroke-miterlimit="10" d="M411.644-308.57h2.13c0,0,4-0.25,4,2.833
					c0,3.084,0,2.25,0,2.25"/>
				<path fill="none" stroke="#E5332A" stroke-width="2" stroke-miterlimit="10" d="M411.644-303.385h6.88
					c0,0,4.169-0.102,4.169,3.731c0,1.833,0,1.833,0,1.833h-11.049"/>
				
					<line fill="none" stroke="#E5332A" stroke-width="2" stroke-miterlimit="10" x1="413.774" y1="-308.57" x2="413.774" y2="-316.987"/>
			</g>
		</g>
	</g>
	
		<polygon fill="none" stroke="#E5332A" stroke-width="2" stroke-linecap="round" stroke-linejoin="round" stroke-miterlimit="10" points="
		419.293,-333.327 414.724,-329.938 416.402,-324.503 411.767,-327.802 407.116,-324.525 408.821,-329.953 404.268,-333.365 
		409.957,-333.421 411.794,-338.805 413.606,-333.411 	"/>
</g>
<g>
	<g>
		<g>
			<g>
				<path fill="none" stroke="#E9D27B" stroke-width="1.5" stroke-miterlimit="10" d="M97.942-227.775h-14.25c0,0-1,26.5,14.25,26.5
					"/>
				<path fill="none" stroke="#E9D27B" stroke-width="1.5" stroke-miterlimit="10" d="M86.894-208.858l-8.701-4.667
					c0,0-2.667-1.25-2.667-4.5s2.084-5.25,3.75-5.25c1.667,0,4.403,0,4.403,0"/>
			</g>
			<g>
				<path fill="none" stroke="#E9D27B" stroke-width="1.5" stroke-miterlimit="10" d="M97.529-227.775h14.25c0,0,1,26.5-14.25,26.5"
					/>
				<path fill="none" stroke="#E9D27B" stroke-width="1.5" stroke-miterlimit="10" d="M108.578-208.858l8.701-4.667
					c0,0,2.666-1.25,2.666-4.5s-2.083-5.25-3.75-5.25c-1.666,0-4.402,0-4.402,0"/>
			</g>
		</g>
		<g>
			<g>
				<path fill="none" stroke="#E9D27B" stroke-width="1.5" stroke-miterlimit="10" d="M97.873-192.858h-2.13c0,0-4-0.25-4,2.833
					c0,3.084,0,2.25,0,2.25"/>
				<path fill="none" stroke="#E9D27B" stroke-width="1.5" stroke-miterlimit="10" d="M97.873-187.673h-6.88
					c0,0-4.169-0.102-4.169,3.731c0,1.833,0,1.833,0,1.833h11.049"/>
				
					<line fill="none" stroke="#E9D27B" stroke-width="1.5" stroke-miterlimit="10" x1="95.743" y1="-192.858" x2="95.743" y2="-201.275"/>
			</g>
			<g>
				<path fill="none" stroke="#E9D27B" stroke-width="1.5" stroke-miterlimit="10" d="M97.599-192.858h2.13c0,0,4-0.25,4,2.833
					c0,3.084,0,2.25,0,2.25"/>
				<path fill="none" stroke="#E9D27B" stroke-width="1.5" stroke-miterlimit="10" d="M97.599-187.673h6.88
					c0,0,4.169-0.102,4.169,3.731c0,1.833,0,1.833,0,1.833H97.599"/>
				
					<line fill="none" stroke="#E9D27B" stroke-width="1.5" stroke-miterlimit="10" x1="99.729" y1="-192.858" x2="99.729" y2="-201.275"/>
			</g>
		</g>
	</g>
	
		<polygon fill="none" stroke="#E9D27B" stroke-width="1.5" stroke-linecap="round" stroke-linejoin="round" stroke-miterlimit="10" points="
		105.248,-217.615 100.679,-214.227 102.356,-208.791 97.722,-212.09 93.07,-208.813 94.775,-214.241 90.223,-217.653 
		95.911,-217.709 97.749,-223.093 99.561,-217.699 	"/>
</g>
<g>
	<g>
		<path fill="none" stroke="#E9D27B" stroke-width="1.5" stroke-miterlimit="10" d="M-11.623-231.545
			c1.418,0,3.63,2.266,4.963,2.751s4.482,0.172,5.569,1.083c1.087,0.912,1.325,4.068,2.034,5.297s3.323,3.013,3.569,4.41
			c0.247,1.397-1.601,3.968-1.846,5.365c-0.246,1.396,0.609,4.445-0.101,5.673c-0.709,1.229-3.776,2.012-4.863,2.923
			c-1.086,0.912-2.389,3.797-3.723,4.282c-1.333,0.485-4.186-0.887-5.604-0.887c-1.419,0-4.271,1.372-5.604,0.887
			s-2.637-3.37-3.724-4.282c-1.086-0.911-4.154-1.694-4.863-2.923c-0.709-1.228,0.146-4.276-0.1-5.673
			c-0.246-1.397-2.093-3.968-1.846-5.365c0.246-1.397,2.86-3.182,3.57-4.41c0.709-1.229,0.946-4.385,2.033-5.297
			c1.087-0.911,4.236-0.599,5.57-1.083C-15.253-229.28-13.042-231.545-11.623-231.545z"/>
		<circle fill="none" stroke="#E9D27B" stroke-width="1.5" stroke-miterlimit="10" cx="-11.623" cy="-215.601" r="7.875"/>
	</g>
	<g>
		<path fill="none" stroke="#E9D27B" stroke-width="1.5" stroke-miterlimit="10" d="M-9.562-199.566l4.469,13.529
			c0,0,1.417-5,6.334-3c-3-6.083-5.401-11.308-5.401-11.308"/>
		<path fill="none" stroke="#E9D27B" stroke-width="1.5" stroke-miterlimit="10" d="M-13.684-199.566l-4.47,13.529
			c0,0-1.417-5-6.333-3c3-6.083,5.401-11.308,5.401-11.308"/>
	</g>
</g>
<g>
	
		<circle fill="none" stroke="#E5332A" stroke-width="5" stroke-linecap="round" stroke-linejoin="round" stroke-miterlimit="10" cx="708.127" cy="-125.478" r="63"/>
	
		<polygon fill="#E5332A" stroke="#E5332A" stroke-width="5" stroke-linecap="round" stroke-linejoin="round" stroke-miterlimit="10" points="
		693.127,-145.107 727.127,-125.478 693.127,-105.848 	"/>
</g>
<circle fill="none" stroke="#201C55" stroke-width="3" stroke-miterlimit="10" cx="-75.969" cy="31.181" r="21.771"/>
<g>
	<g>
		<circle fill="none" stroke="#D9D5E0" stroke-width="3.8613" stroke-miterlimit="10" cx="31.181" cy="31.181" r="28.021"/>
	</g>
	<path fill="none" stroke="#201C55" stroke-width="3.8613" stroke-miterlimit="10" d="M31.181,3.161
		c15.475,0,28.021,12.545,28.021,28.021"/>
</g>
<g>
	<path fill="#E9D27B" d="M92.664,7.812c0,0.8-0.176,1.53-0.527,2.19c-0.352,0.66-0.763,1.233-1.236,1.718
		c-0.485,0.497-1.018,0.942-1.6,1.336c-0.582,0.394-1.048,0.681-1.399,0.863l-0.618-1.073c0.497-0.291,0.973-0.59,1.427-0.899
		c0.455-0.309,0.803-0.603,1.045-0.882c0.327-0.363,0.587-0.742,0.781-1.136c0.194-0.394,0.315-0.912,0.364-1.554h-0.873
		c-0.763,0-1.357-0.193-1.781-0.582c-0.424-0.388-0.636-0.927-0.636-1.618c0-0.497,0.194-0.966,0.582-1.409
		c0.388-0.442,0.915-0.663,1.582-0.663c1.03,0,1.769,0.342,2.217,1.027S92.664,6.71,92.664,7.812z M99.388,7.812
		c0,0.8-0.176,1.53-0.527,2.19c-0.352,0.66-0.763,1.233-1.236,1.718c-0.485,0.497-1.018,0.942-1.6,1.336
		c-0.582,0.394-1.048,0.681-1.399,0.863l-0.618-1.073c0.497-0.291,0.973-0.59,1.427-0.899c0.455-0.309,0.803-0.603,1.045-0.882
		c0.327-0.363,0.587-0.742,0.781-1.136c0.194-0.394,0.315-0.912,0.364-1.554h-0.873c-0.763,0-1.357-0.193-1.781-0.582
		c-0.424-0.388-0.636-0.927-0.636-1.618c0-0.497,0.194-0.966,0.582-1.409c0.388-0.442,0.915-0.663,1.582-0.663
		c1.03,0,1.769,0.342,2.217,1.027S99.388,6.71,99.388,7.812z"/>
</g>
<g>
	<path fill="#201C55" d="M25.208,37.056c-0.776-0.5-1.388-1.229-1.835-2.188c-0.447-0.958-0.67-2.097-0.67-3.415
		c0-1.317,0.223-2.456,0.67-3.414c0.447-0.959,1.06-1.688,1.835-2.188c0.776-0.5,1.658-0.75,2.647-0.75
		c0.988,0,1.873,0.25,2.655,0.75c0.783,0.5,1.398,1.229,1.844,2.188c0.447,0.958,0.671,2.096,0.671,3.414
		c0,1.318-0.224,2.456-0.671,3.415c-0.446,0.959-1.061,1.688-1.844,2.188c-0.782,0.5-1.667,0.75-2.655,0.75
		C26.867,37.806,25.985,37.556,25.208,37.056z M29.946,34.718c0.512-0.729,0.768-1.817,0.768-3.265c0-1.447-0.256-2.534-0.768-3.264
		c-0.512-0.729-1.209-1.094-2.091-1.094c-0.872,0-1.562,0.365-2.074,1.094c-0.512,0.73-0.768,1.817-0.768,3.264
		c0,1.447,0.256,2.536,0.768,3.265s1.202,1.094,2.074,1.094C28.737,35.812,29.435,35.447,29.946,34.718z"/>
	<path fill="#201C55" d="M38.76,25.278v12.352h-2.294V27.201h-2.611v-1.923H38.76z"/>
</g>
<g>
	<g>
		<circle fill="none" stroke="#D9D5E0" stroke-width="3" stroke-miterlimit="10" cx="-129.189" cy="-83.718" r="21.771"/>
	</g>
	<path fill="none" stroke="#201C55" stroke-width="3" stroke-miterlimit="10" d="M-129.189-105.489
		c12.023,0,21.771,9.747,21.771,21.771"/>
</g>
<text transform="matrix(1 0 0 1 -136.3799 -78.7085)" fill="#201C55" font-family="'Montserrat-SemiBold'" font-size="13.7091">01</text>
</svg>
