<?xml version="1.0" encoding="utf-8"?>
<!-- Generator: Adobe Illustrator 15.0.0, SVG Export Plug-In . SVG Version: 6.00 Build 0)  -->
<!DOCTYPE svg PUBLIC "-//W3C//DTD SVG 1.1//EN" "http://www.w3.org/Graphics/SVG/1.1/DTD/svg11.dtd">
<svg version="1.1" id="Warstwa_1" xmlns="http://www.w3.org/2000/svg" xmlns:xlink="http://www.w3.org/1999/xlink" x="0px" y="0px"
	 width="46.25px" height="47.875px" viewBox="0 0 46.25 47.875" enable-background="new 0 0 46.25 47.875" xml:space="preserve">
<image display="none" overflow="visible" width="590" height="2960" xlink:href="85D0D32A.jpg"  transform="matrix(1 0 0 1 3 -1059)">
</image>
<g>
	<g>
		<g>
			<g>
				<path fill="none" stroke="#E9D27B" stroke-width="1.5" stroke-miterlimit="10" d="M23.324,1.171H9.074c0,0-1,26.5,14.25,26.5"/>
				<path fill="none" stroke="#E9D27B" stroke-width="1.5" stroke-miterlimit="10" d="M12.275,20.088l-8.701-4.667
					c0,0-2.667-1.25-2.667-4.5s2.084-5.25,3.75-5.25c1.667,0,4.403,0,4.403,0"/>
			</g>
			<g>
				<path fill="none" stroke="#E9D27B" stroke-width="1.5" stroke-miterlimit="10" d="M22.911,1.171h14.25c0,0,1,26.5-14.25,26.5"/>
				<path fill="none" stroke="#E9D27B" stroke-width="1.5" stroke-miterlimit="10" d="M33.96,20.088l8.701-4.667
					c0,0,2.666-1.25,2.666-4.5s-2.083-5.25-3.75-5.25c-1.666,0-4.402,0-4.402,0"/>
			</g>
		</g>
		<g>
			<g>
				<path fill="none" stroke="#E9D27B" stroke-width="1.5" stroke-miterlimit="10" d="M23.255,36.088h-2.13c0,0-4-0.25-4,2.833
					c0,3.084,0,2.25,0,2.25"/>
				<path fill="none" stroke="#E9D27B" stroke-width="1.5" stroke-miterlimit="10" d="M23.255,41.274h-6.88
					c0,0-4.169-0.102-4.169,3.731c0,1.833,0,1.833,0,1.833h11.049"/>
				
					<line fill="none" stroke="#E9D27B" stroke-width="1.5" stroke-miterlimit="10" x1="21.125" y1="36.088" x2="21.125" y2="27.671"/>
			</g>
			<g>
				<path fill="none" stroke="#E9D27B" stroke-width="1.5" stroke-miterlimit="10" d="M22.98,36.088h2.13c0,0,4-0.25,4,2.833
					c0,3.084,0,2.25,0,2.25"/>
				<path fill="none" stroke="#E9D27B" stroke-width="1.5" stroke-miterlimit="10" d="M22.98,41.274h6.88
					c0,0,4.169-0.102,4.169,3.731c0,1.833,0,1.833,0,1.833H22.98"/>
				<line fill="none" stroke="#E9D27B" stroke-width="1.5" stroke-miterlimit="10" x1="25.11" y1="36.088" x2="25.11" y2="27.671"/>
			</g>
		</g>
	</g>
	
		<polygon fill="none" stroke="#E9D27B" stroke-width="1.5" stroke-linecap="round" stroke-linejoin="round" stroke-miterlimit="10" points="
		30.63,11.332 26.061,14.72 27.738,20.156 23.104,16.857 18.452,20.133 20.157,14.706 15.604,11.293 21.293,11.238 23.131,5.854 
		24.942,11.248 	"/>
</g>
</svg>
