<?xml version="1.0" encoding="utf-8"?>
<!-- Generator: Adobe Illustrator 15.0.0, SVG Export Plug-In . SVG Version: 6.00 Build 0)  -->
<!DOCTYPE svg PUBLIC "-//W3C//DTD SVG 1.0//EN" "http://www.w3.org/TR/2001/REC-SVG-20010904/DTD/svg10.dtd">
<svg version="1.0" id="Warstwa_1" xmlns="http://www.w3.org/2000/svg" xmlns:xlink="http://www.w3.org/1999/xlink" x="0px" y="0px"
	 width="30px" height="30px" viewBox="0 0 30 30" enable-background="new 0 0 30 30" xml:space="preserve">
<path id="instagram" fill="#1A1A1A" d="M15,2.7c4.005,0,4.48,0.015,6.061,0.087c0.951,0.011,1.894,0.186,2.785,0.516
	c0.652,0.24,1.241,0.624,1.725,1.122c0.499,0.484,0.883,1.074,1.123,1.725c0.33,0.892,0.506,1.834,0.517,2.785
	c0.072,1.585,0.09,2.06,0.09,6.065s-0.015,4.48-0.087,6.061c-0.012,0.951-0.186,1.894-0.518,2.785
	c-0.504,1.309-1.538,2.343-2.846,2.848c-0.893,0.33-1.834,0.504-2.785,0.516C19.48,27.281,19.005,27.3,15,27.3
	s-4.48-0.015-6.061-0.087c-0.951-0.012-1.893-0.186-2.785-0.516c-0.651-0.24-1.241-0.624-1.725-1.122
	c-0.499-0.483-0.882-1.073-1.122-1.726c-0.331-0.892-0.506-1.834-0.517-2.785C2.718,19.48,2.7,19.005,2.7,15s0.015-4.48,0.087-6.061
	c0.011-0.951,0.186-1.893,0.517-2.785C3.545,5.502,3.93,4.913,4.429,4.429c0.483-0.498,1.073-0.882,1.724-1.122
	C7.045,2.976,7.988,2.801,8.939,2.79C10.52,2.718,10.995,2.7,15,2.7 M15,0c-4.074,0-4.584,0.017-6.184,0.09
	C7.571,0.116,6.34,0.353,5.175,0.79c-1,0.376-1.907,0.967-2.657,1.73C1.755,3.269,1.164,4.174,0.787,5.174
	C0.35,6.339,0.113,7.57,0.087,8.815C0.017,10.416,0,10.926,0,15c0,4.074,0.017,4.584,0.09,6.184c0.026,1.245,0.263,2.477,0.7,3.642
	c0.376,1.001,0.967,1.907,1.73,2.657c0.75,0.763,1.656,1.354,2.657,1.729c1.166,0.438,2.397,0.675,3.641,0.7
	C10.416,29.982,10.926,30,15,30s4.584-0.018,6.184-0.09c1.245-0.025,2.477-0.263,3.642-0.7c2.015-0.779,3.607-2.372,4.387-4.388
	c0.438-1.164,0.675-2.396,0.7-3.641C29.982,19.585,30,19.074,30,15c0-4.074-0.018-4.585-0.09-6.185
	c-0.025-1.245-0.263-2.476-0.7-3.641c-0.376-1-0.967-1.908-1.729-2.657c-0.749-0.763-1.654-1.353-2.654-1.73
	c-1.166-0.438-2.396-0.674-3.641-0.7C19.584,0.017,19.074,0,15,0L15,0z M15,7.3c-4.252,0-7.7,3.448-7.7,7.7
	c0,4.252,3.448,7.7,7.7,7.7c4.252,0,7.7-3.448,7.7-7.7C22.7,10.748,19.252,7.3,15,7.3L15,7.3z M15,20c-2.761,0-5-2.238-5-5
	c0-2.761,2.239-5,5-5c2.762,0,5,2.239,5,5C20,17.762,17.762,20,15,20z M24.807,6.993c0,0.994-0.806,1.8-1.8,1.8s-1.8-0.806-1.8-1.8
	s0.806-1.8,1.8-1.8l0,0C24.001,5.193,24.807,5.999,24.807,6.993z"/>
</svg>
