<?xml version="1.0" encoding="utf-8"?>
<!-- Generator: Adobe Illustrator 15.0.0, SVG Export Plug-In . SVG Version: 6.00 Build 0)  -->
<!DOCTYPE svg PUBLIC "-//W3C//DTD SVG 1.0//EN" "http://www.w3.org/TR/2001/REC-SVG-20010904/DTD/svg10.dtd">
<svg version="1.0" id="Warstwa_1" xmlns="http://www.w3.org/2000/svg" xmlns:xlink="http://www.w3.org/1999/xlink" x="0px" y="0px"
	 width="100px" height="69px" viewBox="0 0 100 69" enable-background="new 0 0 100 69" xml:space="preserve">
<path id="Color_Fill_5" fill="#FFFFFF" d="M49.84,0.234c0.233-0.128,0.525-0.048,0.66,0.181c0.012,0.021,0.022,0.043,0.031,0.066
	c0.046,0.229-0.029,0.464-0.2,0.623c-0.911,1.288-1.53,2.76-1.814,4.312c-0.162,0.071-0.238,0.259-0.17,0.423
	c0.086,0.031,0.172,0.059,0.26,0.084c1.783-0.18,3.583-0.097,5.341,0.247c8.938,1.745,14.771,10.406,13.025,19.345
	c-0.009,0.043-0.017,0.086-0.025,0.129c-0.247,1.183-0.626,2.334-1.128,3.434c-3.109,6.486-8.172,11.838-14.479,15.3
	c-0.209,0.118-0.471,0.077-0.634-0.101c-0.146-0.219-0.118-0.511,0.065-0.699c0.844-1.172,1.443-2.5,1.763-3.908
	c0.083-0.287,0.124-0.584,0.121-0.883c-0.117-0.098-0.274-0.131-0.421-0.088c-6.466,0.658-12.73-2.481-16.073-8.055
	c-1.542-2.577-2.334-5.534-2.287-8.537c0.028-2.751,0.751-5.452,2.1-7.85C39.128,8.329,43.948,3.454,49.84,0.234 M49.669,15.934
	c-1.828,0.255-3.464,1.268-4.508,2.791c-1.687,2.494-1.402,5.828,0.684,8c2.494,2.579,6.593,2.688,9.221,0.245
	c2.578-2.394,2.727-6.424,0.334-9.002c-0.029-0.031-0.058-0.061-0.086-0.091c-1.463-1.514-3.561-2.237-5.646-1.945l0,0V15.934z
	 M45.723,51.234c0.802-0.211,1.651,0.107,2.116,0.795c0.316,0.477,0.402,1.07,0.234,1.617c-0.328,1.012-1.41,1.571-2.425,1.254
	c-1.005-0.301-1.577-1.359-1.277-2.365c0.002-0.008,0.005-0.017,0.008-0.025c0.201-0.627,0.708-1.107,1.344-1.273V51.234z
	 M63.465,51.221c1.033-0.25,2.074,0.379,2.335,1.408c0.247,1.025-0.384,2.057-1.409,2.305c-0.006,0.001-0.01,0.002-0.016,0.004
	c-1.033,0.253-2.078-0.374-2.341-1.406c-0.112-0.458-0.05-0.941,0.177-1.356c0.266-0.479,0.721-0.825,1.253-0.95L63.465,51.221z
	 M27.143,53.131c1.376-0.168,2.772,0.053,4.031,0.635c3.21,1.506,4.591,5.328,3.085,8.537c-0.544,1.161-1.423,2.132-2.524,2.788
	c-2.023,1.181-4.485,1.34-6.643,0.429c-2.753-1.154-4.341-4.061-3.824-7c0.222-1.334,0.866-2.561,1.838-3.5
	C24.205,53.959,25.625,53.295,27.143,53.131 M27.526,56.256c-0.713,0.098-1.37,0.443-1.854,0.977
	c-1.177,1.364-1.157,3.391,0.048,4.731c0.651,0.696,1.581,1.062,2.532,0.994c0.817-0.042,1.584-0.405,2.134-1.011
	c1.244-1.438,1.14-3.601-0.237-4.912C29.432,56.401,28.472,56.117,27.526,56.256L27.526,56.256L27.526,56.256z M77.025,54.523h1.191
	v0.266h-0.443v1.171h-0.287v-1.174h-0.459c0-0.086,0-0.177,0-0.263H77.025z M78.516,54.523c0.108,0,0.217,0,0.327,0.01
	c0.13,0.218,0.269,0.431,0.411,0.641c0.146-0.214,0.285-0.434,0.426-0.65h0.312v1.437h-0.283c0-0.321,0-0.644-0.008-0.965
	c-0.16,0.214-0.3,0.44-0.448,0.661c-0.152-0.227-0.3-0.453-0.447-0.682v0.985H78.52c-0.002-0.478,0.002-0.96-0.002-1.438
	L78.516,54.523z M59.654,55.2c0.119-0.073,0.244-0.134,0.373-0.181c0.156,0.034,0.272,0.164,0.289,0.322c0,2.791,0,5.584,0,8.375
	c0.037,1.096-0.244,2.179-0.807,3.119c-0.577,0.811-1.427,1.387-2.394,1.624c-2.339,0.546-4.792,0.311-6.984-0.669
	c-0.165-0.054-0.255-0.23-0.201-0.396c0,0,0.001-0.002,0.001-0.004c0.004-0.014,0.01-0.027,0.016-0.039
	c0.272-0.568,0.55-1.135,0.834-1.701c0.083-0.158,0.278-0.221,0.438-0.139c0.014,0.006,0.027,0.014,0.041,0.023
	c1.1,0.568,2.337,0.818,3.571,0.718c0.632-0.03,1.224-0.319,1.636-0.8c0.363-0.554,0.52-1.218,0.44-1.875
	c-0.517,0.615-1.204,1.064-1.976,1.292c-1.236,0.304-2.543,0.07-3.6-0.642c-0.829-0.586-1.414-1.455-1.644-2.444
	c-0.19-0.805-0.202-1.642-0.033-2.45c0.202-1.01,0.76-1.913,1.573-2.545c0.537-0.408,1.164-0.679,1.83-0.789
	c0.396-0.053,0.799-0.07,1.199-0.053h2.477c0.095-0.012,0.191,0.01,0.272,0.061c0.208,0.174,0.386,0.379,0.583,0.561
	c0.686-0.457,1.383-0.894,2.063-1.364 M54.355,58.691c-0.998,0.225-1.623,1.216-1.398,2.213c0.075,0.332,0.24,0.636,0.477,0.88
	c0.838,0.789,2.146,0.786,2.98-0.009c0.68-0.736,0.671-1.874-0.021-2.6c-0.549-0.502-1.316-0.688-2.035-0.492L54.355,58.691z
	 M72.547,56.227c0.645-0.265,1.352-0.34,2.038-0.219c0.711,0.102,1.362,0.453,1.837,0.992c0.403,0.49,0.662,1.084,0.748,1.714
	c0.063,0.519,0.084,1.042,0.064,1.565v5.199c0.032,0.172-0.081,0.336-0.252,0.367c-0.001,0-0.002,0-0.002,0
	c-0.023,0.004-0.047,0.006-0.069,0.006H74.1c-0.158,0.021-0.303-0.09-0.324-0.248c-0.003-0.021-0.003-0.041,0-0.063V60.65
	c0.027-0.473-0.131-0.939-0.44-1.299c-0.577-0.514-1.458-0.473-1.983,0.094c-0.049,0.053-0.093,0.109-0.133,0.168
	c-0.195,0.354-0.287,0.756-0.263,1.16v4.761c0.02,0.149-0.086,0.286-0.235,0.306c-0.001,0-0.002,0-0.002,0h-0.027
	c-0.906,0.008-1.819,0-2.729,0c-0.126,0.021-0.257-0.007-0.362-0.08c-0.083-0.121-0.119-0.27-0.1-0.416c0.005-2.939,0-5.881,0-8.82
	c-0.018-0.178,0.112-0.336,0.29-0.354c0.001,0,0.001,0,0.001,0h0.036c0.907-0.011,1.823,0,2.733,0
	c0.17-0.029,0.334,0.072,0.385,0.236c0.021,0.371,0,0.742,0.008,1.115c0.414-0.558,0.96-1.002,1.589-1.295H72.547z M41.1,56.439
	c0.447-0.277,0.961-0.427,1.488-0.431c0.165-0.015,0.311,0.106,0.326,0.272l0,0c0.001,0.018,0.001,0.033,0,0.05v2.946
	c0,0.181-0.147,0.328-0.328,0.328c0,0,0,0-0.001,0c-0.021,0-0.042-0.002-0.063-0.006c-0.726-0.027-1.43,0.247-1.947,0.756
	c-0.494,0.613-0.759,1.379-0.749,2.166c-0.008,1,0.005,2-0.005,3c0.01,0.166-0.116,0.309-0.281,0.318c-0.003,0-0.006,0-0.01,0
	c-0.016,0.002-0.032,0.002-0.048,0h-2.8c-0.153,0.018-0.292-0.092-0.31-0.244c-0.002-0.021-0.002-0.042,0-0.063v-9.079
	c0.011-0.177,0.162-0.312,0.338-0.3c0.001,0,0.002,0,0.002,0h0.032h2.734c0.174-0.015,0.327,0.115,0.342,0.289c0,0,0,0.01,0,0.015
	c0.018,0.53,0,1.06,0.007,1.59C40.084,57.398,40.527,56.839,41.1,56.439z M44.817,56.169c0.884-0.011,1.767,0,2.651-0.006
	c0.139-0.022,0.281,0.015,0.393,0.101c0.079,0.088,0.115,0.207,0.1,0.324v8.891c0.032,0.167-0.078,0.329-0.246,0.361
	c0,0-0.001,0-0.002,0c-0.018,0.004-0.036,0.005-0.054,0.006H44.8c-0.174-0.006-0.312-0.15-0.307-0.326l0,0
	c0-0.016,0.002-0.03,0.005-0.045v-8.957c-0.022-0.17,0.099-0.326,0.269-0.348c0.018-0.002,0.036-0.003,0.054-0.002L44.817,56.169z
	 M62.453,56.175c0.923-0.024,1.849,0,2.773-0.011c0.18-0.039,0.357,0.073,0.399,0.252c0.003,0.014,0.005,0.026,0.007,0.04
	c0.006,3.026,0,6.056,0,9.082c0.016,0.149-0.092,0.283-0.24,0.3h-0.037c-0.955,0-1.914,0-2.867,0
	c-0.143,0.006-0.267-0.097-0.288-0.238c-0.023-0.211-0.03-0.425-0.019-0.638V56.52c-0.016-0.171,0.105-0.322,0.275-0.346
	L62.453,56.175z"/>
</svg>
