<?xml version="1.0" encoding="utf-8"?>
<!-- Generator: Adobe Illustrator 15.0.0, SVG Export Plug-In . SVG Version: 6.00 Build 0)  -->
<!DOCTYPE svg PUBLIC "-//W3C//DTD SVG 1.0//EN" "http://www.w3.org/TR/2001/REC-SVG-20010904/DTD/svg10.dtd">
<svg version="1.0" id="Warstwa_1" xmlns="http://www.w3.org/2000/svg" xmlns:xlink="http://www.w3.org/1999/xlink" x="0px" y="0px"
	 width="100px" height="69px" viewBox="0 0 100 69" enable-background="new 0 0 100 69" xml:space="preserve">
<path id="Color_Fill_3" fill="#F2F2F2" d="M88.547,66.938h1.471v0.217h-0.601v1.672h-0.26v-1.672h-0.61V66.938L88.547,66.938z
	 M89.158,68.826h0.256v-1.672h0.605v-0.217h-1.47v0.217h0.608V68.826z M90.252,66.938H90.6l0.549,1.613l0.531-1.613h0.309v1.89
	h-0.202v-1.536l-0.511,1.535h-0.254l-0.51-1.535v1.535h-0.261L90.252,66.938L90.252,66.938L90.252,66.938z M90.514,67.291
	l0.51,1.535h0.254l0.51-1.535v1.535H92v-1.889h-0.311l-0.531,1.613l-0.549-1.613h-0.354v1.889h0.257v-1.535H90.514z M48.389,64.3
	v-7.81c0-1.594,0.746-2.735,2.335-2.735h9.809c0.063-0.004,0.113-0.054,0.117-0.118v-1.554c0-0.014-0.003-0.027-0.008-0.04H48.649
	c-2.293,0.155-4.025,2.141-3.87,4.433c0,0.001,0,0.003,0,0.003V64.3c0,1.593-0.767,2.735-2.336,2.735H32.086
	c-0.063-0.003-0.115,0.045-0.118,0.107l0,0c0,0.004,0,0.008,0,0.01v1.558c-0.001,0.058,0.033,0.108,0.086,0.13h11.761
	c2.36,0.165,4.407-1.615,4.572-3.975C48.4,64.677,48.401,64.488,48.389,64.3z M8.089,68.835h3.443
	c0.053-0.021,0.087-0.073,0.086-0.13V63.73c0-1.594,0.9-2.701,2.216-2.701h14.19c3.2,0,4.748-1.967,4.748-4.545
	c0.161-2.292-1.567-4.281-3.86-4.441c0,0,0,0-0.001,0H8.029c-0.008,0.012-0.014,0.025-0.016,0.04v1.554
	c-0.011,0.055,0.024,0.107,0.078,0.118c0.013,0.003,0.026,0.003,0.039,0h18.7c1.589,0,2.335,1.142,2.335,2.735
	s-0.746,2.734-2.335,2.734H12.035c-2.3,0-4.022,1.948-4.022,4.506v4.979c-0.006,0.057,0.027,0.109,0.08,0.129L8.089,68.835z
	 M60.589,67.035h18.836c0.049-0.006,0.094,0.027,0.101,0.076l0,0v1.601c-0.002,0.063,0.047,0.116,0.109,0.118l0,0h3.4
	c0.062,0.003,0.114-0.045,0.117-0.107l0,0c0-0.004,0-0.007,0-0.011v-1.558c0.004-0.063,0.055-0.113,0.117-0.118h3.373
	c0.063,0.003,0.115-0.046,0.118-0.108h0.001c0-0.003,0-0.006,0-0.01v-1.574c0.002-0.063-0.047-0.115-0.108-0.117h-0.001h-3.379
	c-0.065-0.006-0.116-0.059-0.119-0.123V53.755c0.111-0.713-0.265-1.413-0.922-1.712h-0.983c-0.353,0.096-0.689,0.241-1,0.434
	L59.965,64.971c-0.785,0.491-1.061,1.041-0.863,1.455c0.332,0.482,0.918,0.721,1.491,0.61L60.589,67.035z M44.224,0
	c1.9,0.355,3.781,0.861,5.647,1.389C50.938,1.7,52,2.018,53.059,2.359c1.678,0.487,3.295,1.164,4.819,2.016
	c0.683,0.397,1.312,0.878,1.875,1.432c0.599,0.586,1.088,1.274,1.447,2.031c0.608,1.386,0.93,2.881,0.946,4.394
	c0.059,0.981,0.01,1.965-0.146,2.935c-0.139,0.848-0.436,1.662-0.874,2.4c-0.396,0.654-0.956,1.193-1.626,1.561
	c-0.649,0.344-1.376,0.517-2.111,0.5c-1.104-0.027-2.189-0.301-3.176-0.8c-0.018-3.3,0-6.6-0.008-9.892
	c0.027-0.598-0.002-1.196-0.087-1.788c-0.066-0.468-0.288-0.899-0.63-1.225c-0.246-0.206-0.541-0.344-0.856-0.4
	c-0.319-0.056-0.643,0.069-0.842,0.324c-0.292,0.42-0.44,0.924-0.422,1.436v26.482L44.226,31.5C44.222,21,44.221,10.5,44.224,0z
	 M33.524,22.339c3.107-1.1,6.21-2.2,9.309-3.3v3.648c0.005,0.167,0.001,0.333-0.012,0.5c-2.454,0.868-4.9,1.751-7.355,2.624
	c-0.35,0.109-0.674,0.29-0.95,0.532c-0.14,0.114-0.2,0.3-0.154,0.475c0.105,0.191,0.279,0.334,0.487,0.4
	c0.547,0.187,1.122,0.28,1.7,0.275c0.639-0.003,1.275-0.07,1.9-0.2c0.42-0.091,0.833-0.217,1.233-0.376
	c1.048-0.378,2.1-0.759,3.145-1.133c0.008,1.028,0,2.057,0,3.086c0,0.206,0.009,0.412-0.011,0.617
	c-1.284,0.243-2.586,0.381-3.893,0.414c-2.643,0.054-5.275-0.342-7.786-1.17c-0.834-0.212-1.622-0.577-2.324-1.074
	c-0.392-0.281-0.698-0.665-0.887-1.109c-0.146-0.387-0.13-0.817,0.046-1.192c0.186-0.361,0.464-0.667,0.808-0.884
	c0.78-0.518,1.61-0.953,2.479-1.3C32,22.86,32.767,22.614,33.524,22.339z M58.494,20.954c0.699-0.081,1.413-0.1,2.119-0.126
	c2.335-0.015,4.658,0.32,6.895,0.994c0.438,0.133,0.86,0.3,1.301,0.442c0.792,0.252,1.529,0.653,2.172,1.182
	c0.406,0.325,0.659,0.803,0.701,1.32c0.004,0.426-0.156,0.837-0.447,1.147c-0.551,0.564-1.202,1.02-1.92,1.345
	c-0.756,0.349-1.531,0.652-2.322,0.91l-14.273,5.114v-3.988c0.008-0.053-0.021-0.145,0.053-0.159
	c3.619-1.285,7.238-2.572,10.856-3.861c0.509-0.138,0.991-0.356,1.433-0.646c0.198-0.117,0.301-0.347,0.252-0.573
	c-0.106-0.188-0.279-0.328-0.485-0.393c-0.547-0.188-1.122-0.28-1.7-0.271c-0.906-0.007-1.808,0.13-2.671,0.406
	c-2.578,0.9-5.151,1.813-7.729,2.712v-4.281C54.596,21.591,56.53,21.164,58.494,20.954z M69.07,30.788
	c0.896-0.104,1.706,0.539,1.81,1.435s-0.539,1.706-1.435,1.81c-0.896,0.104-1.707-0.539-1.811-1.435
	c-0.031-0.28,0.009-0.564,0.119-0.825C67.984,31.232,68.486,30.856,69.07,30.788z M68.948,31.088
	c-0.729,0.171-1.181,0.901-1.009,1.629c0.171,0.729,0.9,1.18,1.629,1.009s1.18-0.901,1.009-1.629
	c-0.004-0.016-0.008-0.032-0.013-0.048c-0.102-0.358-0.346-0.661-0.674-0.838C69.602,31.057,69.266,31.013,68.948,31.088
	L68.948,31.088L68.948,31.088z M68.557,31.47h0.881c0.172-0.009,0.34,0.051,0.467,0.168c0.109,0.142,0.146,0.327,0.1,0.5
	c-0.035,0.101-0.101,0.188-0.186,0.253c0.072,0.044,0.127,0.113,0.154,0.194c0.006,0.171,0.023,0.343,0.051,0.512
	c0.039,0.056,0.064,0.12,0.072,0.188H69.73c-0.039-0.201-0.063-0.404-0.071-0.608c-0.024-0.08-0.101-0.133-0.185-0.129
	c-0.199-0.008-0.399,0-0.6,0c0,0.246,0.007,0.493-0.006,0.739h-0.307C68.555,32.677,68.557,32.072,68.557,31.47z M68.876,31.757v0.5
	h0.533c0.093,0.01,0.185-0.024,0.248-0.092c0.058-0.099,0.058-0.22,0-0.319c-0.056-0.064-0.138-0.098-0.222-0.089
	C69.252,31.753,69.063,31.756,68.876,31.757z M80,56v9H64L80,56z"/>
</svg>
