<?xml version="1.0" encoding="utf-8"?>
<!-- Generator: Adobe Illustrator 15.0.0, SVG Export Plug-In . SVG Version: 6.00 Build 0)  -->
<!DOCTYPE svg PUBLIC "-//W3C//DTD SVG 1.1//EN" "http://www.w3.org/Graphics/SVG/1.1/DTD/svg11.dtd">
<svg version="1.1" id="Warstwa_1" xmlns="http://www.w3.org/2000/svg" xmlns:xlink="http://www.w3.org/1999/xlink" x="0px" y="0px"
	 width="30.512px" height="25.824px" viewBox="0 0 30.512 25.824" enable-background="new 0 0 30.512 25.824" xml:space="preserve">
<image display="none" overflow="visible" width="590" height="2960" xlink:href="367BEF84.jpg"  transform="matrix(1 0 0 1 5.3867 -1057.4258)">
</image>
<g>
	<g>
		<g>
			<g>
				<path fill="none" stroke="#E5332A" stroke-width="2" stroke-miterlimit="10" d="M406.318-349.157h-14.25c0,0-1,26.5,14.25,26.5"
					/>
				<path fill="none" stroke="#E5332A" stroke-width="2" stroke-miterlimit="10" d="M395.27-330.24l-8.701-4.667
					c0,0-2.667-1.25-2.667-4.5s2.084-5.25,3.75-5.25c1.667,0,4.403,0,4.403,0"/>
			</g>
			<g>
				<path fill="none" stroke="#E5332A" stroke-width="2" stroke-miterlimit="10" d="M405.905-349.157h14.25c0,0,1,26.5-14.25,26.5"
					/>
				<path fill="none" stroke="#E5332A" stroke-width="2" stroke-miterlimit="10" d="M416.954-330.24l8.701-4.667
					c0,0,2.666-1.25,2.666-4.5s-2.083-5.25-3.75-5.25c-1.666,0-4.402,0-4.402,0"/>
			</g>
		</g>
		<g>
			<g>
				<path fill="none" stroke="#E5332A" stroke-width="2" stroke-miterlimit="10" d="M406.249-314.24h-2.13c0,0-4-0.25-4,2.833
					c0,3.084,0,2.25,0,2.25"/>
				<path fill="none" stroke="#E5332A" stroke-width="2" stroke-miterlimit="10" d="M406.249-309.054h-6.88
					c0,0-4.169-0.102-4.169,3.731c0,1.833,0,1.833,0,1.833h11.049"/>
				
					<line fill="none" stroke="#E5332A" stroke-width="2" stroke-miterlimit="10" x1="404.119" y1="-314.24" x2="404.119" y2="-322.657"/>
			</g>
			<g>
				<path fill="none" stroke="#E5332A" stroke-width="2" stroke-miterlimit="10" d="M405.975-314.24h2.13c0,0,4-0.25,4,2.833
					c0,3.084,0,2.25,0,2.25"/>
				<path fill="none" stroke="#E5332A" stroke-width="2" stroke-miterlimit="10" d="M405.975-309.054h6.88
					c0,0,4.169-0.102,4.169,3.731c0,1.833,0,1.833,0,1.833h-11.049"/>
				
					<line fill="none" stroke="#E5332A" stroke-width="2" stroke-miterlimit="10" x1="408.104" y1="-314.24" x2="408.104" y2="-322.657"/>
			</g>
		</g>
	</g>
	
		<polygon fill="none" stroke="#E5332A" stroke-width="2" stroke-linecap="round" stroke-linejoin="round" stroke-miterlimit="10" points="
		413.624,-338.997 409.055,-335.608 410.732,-330.172 406.098,-333.471 401.446,-330.195 403.151,-335.623 398.599,-339.035 
		404.287,-339.09 406.125,-344.474 407.937,-339.081 	"/>
</g>
<g>
	<g>
		<g>
			<g>
				<path fill="none" stroke="#E9D27B" stroke-width="1.5" stroke-miterlimit="10" d="M92.273-233.445h-14.25c0,0-1,26.5,14.25,26.5
					"/>
				<path fill="none" stroke="#E9D27B" stroke-width="1.5" stroke-miterlimit="10" d="M81.224-214.528l-8.701-4.667
					c0,0-2.667-1.25-2.667-4.5s2.084-5.25,3.75-5.25c1.667,0,4.403,0,4.403,0"/>
			</g>
			<g>
				<path fill="none" stroke="#E9D27B" stroke-width="1.5" stroke-miterlimit="10" d="M91.86-233.445h14.25c0,0,1,26.5-14.25,26.5"
					/>
				<path fill="none" stroke="#E9D27B" stroke-width="1.5" stroke-miterlimit="10" d="M102.909-214.528l8.701-4.667
					c0,0,2.666-1.25,2.666-4.5s-2.083-5.25-3.75-5.25c-1.666,0-4.402,0-4.402,0"/>
			</g>
		</g>
		<g>
			<g>
				<path fill="none" stroke="#E9D27B" stroke-width="1.5" stroke-miterlimit="10" d="M92.204-198.528h-2.13c0,0-4-0.25-4,2.833
					c0,3.084,0,2.25,0,2.25"/>
				<path fill="none" stroke="#E9D27B" stroke-width="1.5" stroke-miterlimit="10" d="M92.204-193.342h-6.88
					c0,0-4.169-0.102-4.169,3.731c0,1.833,0,1.833,0,1.833h11.049"/>
				
					<line fill="none" stroke="#E9D27B" stroke-width="1.5" stroke-miterlimit="10" x1="90.074" y1="-198.528" x2="90.074" y2="-206.945"/>
			</g>
			<g>
				<path fill="none" stroke="#E9D27B" stroke-width="1.5" stroke-miterlimit="10" d="M91.929-198.528h2.13c0,0,4-0.25,4,2.833
					c0,3.084,0,2.25,0,2.25"/>
				<path fill="none" stroke="#E9D27B" stroke-width="1.5" stroke-miterlimit="10" d="M91.929-193.342h6.88
					c0,0,4.169-0.102,4.169,3.731c0,1.833,0,1.833,0,1.833H91.929"/>
				
					<line fill="none" stroke="#E9D27B" stroke-width="1.5" stroke-miterlimit="10" x1="94.059" y1="-198.528" x2="94.059" y2="-206.945"/>
			</g>
		</g>
	</g>
	
		<polygon fill="none" stroke="#E9D27B" stroke-width="1.5" stroke-linecap="round" stroke-linejoin="round" stroke-miterlimit="10" points="
		99.579,-223.285 95.009,-219.896 96.687,-214.46 92.052,-217.759 87.401,-214.483 89.106,-219.911 84.553,-223.323 
		90.242,-223.378 92.08,-228.762 93.891,-223.369 	"/>
</g>
<g>
	<g>
		<path fill="none" stroke="#E9D27B" stroke-width="1.5" stroke-miterlimit="10" d="M-17.292-237.215
			c1.418,0,3.63,2.266,4.963,2.751s4.482,0.172,5.569,1.083c1.087,0.912,1.325,4.068,2.034,5.297s3.323,3.013,3.569,4.41
			c0.247,1.397-1.601,3.968-1.846,5.365c-0.246,1.396,0.609,4.445-0.101,5.673c-0.709,1.229-3.776,2.012-4.863,2.923
			c-1.086,0.912-2.389,3.797-3.723,4.282c-1.333,0.485-4.186-0.887-5.604-0.887c-1.419,0-4.271,1.372-5.604,0.887
			s-2.637-3.37-3.724-4.282c-1.086-0.911-4.154-1.694-4.863-2.923c-0.709-1.228,0.146-4.276-0.1-5.673
			c-0.246-1.397-2.093-3.968-1.846-5.365c0.246-1.397,2.86-3.182,3.57-4.41c0.709-1.229,0.946-4.385,2.033-5.297
			c1.087-0.911,4.236-0.599,5.57-1.083C-20.923-234.949-18.711-237.215-17.292-237.215z"/>
		<circle fill="none" stroke="#E9D27B" stroke-width="1.5" stroke-miterlimit="10" cx="-17.292" cy="-221.271" r="7.875"/>
	</g>
	<g>
		<path fill="none" stroke="#E9D27B" stroke-width="1.5" stroke-miterlimit="10" d="M-15.231-205.235l4.469,13.529
			c0,0,1.417-5,6.334-3c-3-6.083-5.401-11.308-5.401-11.308"/>
		<path fill="none" stroke="#E9D27B" stroke-width="1.5" stroke-miterlimit="10" d="M-19.354-205.235l-4.47,13.529
			c0,0-1.417-5-6.333-3c3-6.083,5.401-11.308,5.401-11.308"/>
	</g>
</g>
<g>
	
		<circle fill="none" stroke="#E5332A" stroke-width="5" stroke-linecap="round" stroke-linejoin="round" stroke-miterlimit="10" cx="702.458" cy="-131.147" r="63"/>
	
		<polygon fill="#E5332A" stroke="#E5332A" stroke-width="5" stroke-linecap="round" stroke-linejoin="round" stroke-miterlimit="10" points="
		687.458,-150.777 721.458,-131.147 687.458,-111.517 	"/>
</g>
<g>
	<path fill="#E9D27B" d="M16.341,16.012c0-2.066,0.454-3.952,1.362-5.659c0.908-1.706,1.971-3.185,3.192-4.438
		c1.253-1.283,2.63-2.434,4.132-3.451c1.502-1.017,2.708-1.76,3.615-2.23l1.597,2.771c-1.284,0.75-2.513,1.525-3.686,2.323
		c-1.174,0.799-2.074,1.558-2.701,2.278c-0.845,0.938-1.518,1.917-2.018,2.934c-0.501,1.018-0.813,2.356-0.94,4.015h2.254
		c1.972,0,3.505,0.5,4.602,1.502c1.096,1.001,1.644,2.394,1.644,4.179c0,1.283-0.5,2.495-1.502,3.639
		c-1.001,1.142-2.364,1.713-4.085,1.713c-2.661,0-4.57-0.884-5.729-2.653C16.921,21.169,16.341,18.859,16.341,16.012z M0.344,16.012
		c0-2.066,0.454-3.952,1.361-5.659c0.908-1.706,1.971-3.185,3.192-4.438C6.15,4.633,7.527,3.482,9.03,2.465
		c1.502-1.017,2.708-1.76,3.615-2.23l1.597,2.771c-1.283,0.75-2.513,1.525-3.686,2.323C9.382,6.128,8.482,6.887,7.855,7.607
		C7.01,8.546,6.338,9.525,5.837,10.542c-0.501,1.018-0.814,2.356-0.94,4.015h2.254c1.971,0,3.506,0.5,4.602,1.502
		c1.096,1.001,1.644,2.394,1.644,4.179c0,1.283-0.501,2.495-1.502,3.639c-1.001,1.142-2.364,1.713-4.085,1.713
		c-2.661,0-4.57-0.884-5.729-2.653C0.923,21.169,0.344,18.859,0.344,16.012z"/>
</g>
</svg>
