<?xml version="1.0" encoding="utf-8"?>
<!-- Generator: Adobe Illustrator 15.0.0, SVG Export Plug-In . SVG Version: 6.00 Build 0)  -->
<!DOCTYPE svg PUBLIC "-//W3C//DTD SVG 1.0//EN" "http://www.w3.org/TR/2001/REC-SVG-20010904/DTD/svg10.dtd">
<svg version="1.0" id="Warstwa_1" xmlns="http://www.w3.org/2000/svg" xmlns:xlink="http://www.w3.org/1999/xlink" x="0px" y="0px"
	 width="30px" height="30px" viewBox="0 0 30 30" enable-background="new 0 0 30 30" xml:space="preserve">
<g>
	<defs>
		<rect id="SVGID_1_" x="0.078" y="-0.547" width="30" height="30"/>
	</defs>
	<clipPath id="SVGID_2_">
		<use xlink:href="#SVGID_1_"  overflow="visible"/>
	</clipPath>
	<g clip-path="url(#SVGID_2_)">
		<path id="TWITTER" fill="#1A1A1A" d="M29.908,5.685L29.908,5.685 M20.673,2.797c-3.407,0.005-6.165,2.772-6.159,6.179
			c0,0.466,0.054,0.93,0.159,1.383C9.72,10.112,5.105,7.772,1.978,3.924c-1.633,2.815-0.799,6.414,1.906,8.223
			c-0.978-0.031-1.934-0.295-2.789-0.77c0,0.025,0,0.052,0,0.077c0,2.932,2.067,5.458,4.941,6.039
			c-0.907,0.246-1.859,0.282-2.782,0.104c0.807,2.508,3.118,4.227,5.752,4.277c-2.181,1.712-4.875,2.641-7.648,2.637
			c-0.491-0.001-0.981-0.029-1.469-0.087c2.816,1.81,6.094,2.77,9.441,2.767c11.328,0,17.521-9.383,17.521-17.522
			c0-0.267-0.006-0.533-0.018-0.8c1.205-0.871,2.246-1.949,3.074-3.184c-1.125,0.498-2.316,0.825-3.537,0.97
			c1.285-0.77,2.248-1.981,2.707-3.408c-1.209,0.719-2.531,1.227-3.911,1.5c-1.165-1.244-2.796-1.949-4.5-1.945"/>
	</g>
</g>
</svg>
