<?xml version="1.0" encoding="utf-8"?>
<!-- Generator: Adobe Illustrator 15.0.0, SVG Export Plug-In . SVG Version: 6.00 Build 0)  -->
<!DOCTYPE svg PUBLIC "-//W3C//DTD SVG 1.0//EN" "http://www.w3.org/TR/2001/REC-SVG-20010904/DTD/svg10.dtd">
<svg version="1.0" id="Warstwa_1" xmlns="http://www.w3.org/2000/svg" xmlns:xlink="http://www.w3.org/1999/xlink" x="0px" y="0px"
	 width="100px" height="69px" viewBox="0 0 100 69" enable-background="new 0 0 100 69" xml:space="preserve">
<path id="Color_Fill_1" fill="#FFFFFF" d="M85.707,53.126V65.6l-9.165-12.483h-1.5V68.3h1.685V56.1l8.981,12.205h1.688V53.126
	H85.707z M66.277,52.773c-4.26,0-7.236,3.266-7.236,7.94s2.977,7.948,7.236,7.948c4.261,0,7.223-3.262,7.223-7.948
	S70.533,52.773,66.277,52.773 M66.277,67.051c-3.244,0-5.52-2.605-5.52-6.339s2.275-6.336,5.52-6.336s5.5,2.606,5.5,6.336
	S69.518,67.051,66.277,67.051 M90.988,66.824v-5.618h8.341v-1.485h-8.341V54.6H99.9v-1.483H89.29v15.194H100v-1.486H90.988z
	 M51.421,68.661l-4.843-6.591l-4.84,6.591h-2l5.829-7.961l-5.318-7.237h1.993l4.336,5.9l4.332-5.9h1.99L47.586,60.7l5.827,7.963
	h-1.992V68.661z M24.757,61.273c-0.301-0.256-0.635-0.469-0.993-0.635c1.122-0.599,1.822-1.768,1.822-3.039
	c0-0.972-0.358-4.135-4.929-4.135H14.5v6.553h-2.052c-0.267,0.348-0.87,1.182-1.1,1.525H14.5v7.117h6.158
	c3.335,0,5.408-1.7,5.408-4.438C26.095,63.094,25.615,62.01,24.757,61.273 M16.2,55.047h4.455c1.207,0,3.226,0.301,3.226,2.416
	c0,1.6-1.177,2.551-3.226,2.551H16.2V55.047z M20.655,67.075H16.2v-5.534h4.455c1.69,0,3.71,0.468,3.71,2.648
	C24.365,66.695,22.041,67.075,20.655,67.075 M34.075,53.109c-4.259,0-7.236,3.266-7.236,7.941S29.816,69,34.075,69
	c4.259,0,7.225-3.266,7.225-7.949C41.3,56.368,38.332,53.109,34.075,53.109 M34.076,67.389c-3.245,0-5.518-2.605-5.518-6.339
	s2.273-6.335,5.518-6.335c3.245,0,5.5,2.605,5.5,6.335S37.315,67.389,34.076,67.389 M13.676,68.659L7.842,60.7l5.319-7.236h-1.993
	l-4.336,5.899L2.5,53.461H0.513L5.828,60.7L0,68.66h2l4.835-6.59l4.842,6.589h1.994H13.676z M54.74,9.205
	c-0.074,0.115-0.129,0.227-0.2,0.341c2.2,2.672,9.327,11.373,8.69,17.358c5.441-6.789,4.698-16.631-1.701-22.527
	C58.873,4.893,56.2,7.253,54.74,9.205z M45.464,9.54c-0.07-0.114-0.125-0.225-0.2-0.341c-1.464-1.947-4.136-4.3-6.8-4.819
	c-6.383,5.886-7.133,15.705-1.717,22.492C36.115,20.893,43.26,12.208,45.464,9.54z M51.863,14.959L51.863,14.959
	c-0.6-0.509-1.205-1.028-1.861-1.559c-0.654,0.526-1.261,1.041-1.857,1.548l0,0c-4.335,3.832-9.876,8.908-9.823,13.652
	c6.533,6.221,16.795,6.229,23.337,0.017c0.049-4.747-5.472-9.817-9.792-13.658H51.863z M41.172,2.334
	c3.148,0.055,6.215,1.007,8.84,2.745c2.613-1.738,5.669-2.69,8.806-2.745c0.008,0.002,0.016,0.002,0.022,0
	c-5.423-3.332-12.258-3.332-17.681,0C41.164,2.335,41.168,2.335,41.172,2.334z"/>
</svg>
