<?xml version="1.0" encoding="utf-8"?>
<!-- Generator: Adobe Illustrator 15.0.0, SVG Export Plug-In . SVG Version: 6.00 Build 0)  -->
<!DOCTYPE svg PUBLIC "-//W3C//DTD SVG 1.0//EN" "http://www.w3.org/TR/2001/REC-SVG-20010904/DTD/svg10.dtd">
<svg version="1.0" id="Warstwa_1" xmlns="http://www.w3.org/2000/svg" xmlns:xlink="http://www.w3.org/1999/xlink" x="0px" y="0px"
	 width="30px" height="30px" viewBox="0 0 30 30" enable-background="new 0 0 30 30" xml:space="preserve">
<path id="youtube" fill="#1A1A1A" d="M15.007,4.5h-0.014c0,0-6.293,0-10.493,0.3C3.37,4.811,2.289,5.266,1.492,6.067
	C0.852,6.939,0.442,7.958,0.3,9.03c-0.187,1.604-0.287,3.218-0.3,4.833v2.265c0.013,1.614,0.113,3.228,0.3,4.832
	c0.142,1.073,0.552,2.092,1.192,2.964C2.407,24.731,3.58,25.184,4.8,25.2C7.2,25.43,15,25.5,15,25.5l0,0c0,0,6.3-0.009,10.5-0.311
	c1.129-0.012,2.209-0.465,3.006-1.266c0.641-0.871,1.051-1.891,1.194-2.964c0.187-1.604,0.286-3.218,0.3-4.832v-2.265
	c-0.014-1.615-0.113-3.228-0.3-4.832c-0.143-1.072-0.553-2.092-1.193-2.964C27.71,5.266,26.63,4.811,25.5,4.8
	C21.3,4.5,15.007,4.5,15.007,4.5"/>
<polygon fill="#FFFFFF" points="11.9,18.873 20,14.693 11.9,10.484 "/>
</svg>
